/* XPM */
static char *_55c4f6e2a334158bfa6faf783c0ba3bkxh5wwLZCBvIU8PY[] = {
/* columns rows colors chars-per-pixel */
"80 80 168 2 ",
"   c None",
".  c #0B0C0B",
"X  c #0F100E",
"o  c #0E0F19",
"O  c #0E0E17",
"+  c #0F101A",
"@  c #0E1015",
"#  c #121312",
"$  c #12121D",
"%  c #1B1C1C",
"&  c #1A1A17",
"*  c #22221E",
"=  c #151523",
"-  c #1B1B24",
";  c #1D1D2C",
":  c #1C2120",
">  c #242424",
",  c #282723",
"<  c #292925",
"1  c #24242C",
"2  c #2D2D2C",
"3  c #272A28",
"4  c #302F2B",
"5  c #2E3928",
"6  c #2C352C",
"7  c #33332D",
"8  c #333A2D",
"9  c #2B2B33",
"0  c #25243A",
"q  c #282838",
"w  c #212135",
"e  c #302F32",
"r  c #353531",
"t  c #383732",
"y  c #3B3A34",
"u  c #35353C",
"i  c #3C3C3B",
"p  c #403F38",
"a  c #35422E",
"s  c #3C4336",
"d  c #3A4931",
"f  c #3E433A",
"g  c #3F4A38",
"h  c #404737",
"j  c #44433B",
"k  c #49463E",
"l  c #434E3B",
"z  c #4A493F",
"x  c #49523F",
"c  c #2B2A44",
"v  c #2E2E49",
"b  c #302F4B",
"n  c #303043",
"m  c #3C3C43",
"M  c #33324E",
"N  c #3B3B4E",
"B  c #353453",
"V  c #403F58",
"C  c #454543",
"Z  c #4C4A43",
"A  c #4A4B4A",
"S  c #45454F",
"D  c #514E45",
"F  c #504F48",
"G  c #4B5643",
"H  c #4F504D",
"J  c #535147",
"K  c #54534B",
"L  c #59564D",
"P  c #5C594F",
"I  c #4F4E5F",
"U  c #4F5050",
"Y  c #545453",
"T  c #5A5750",
"R  c #575856",
"E  c #5E5B51",
"W  c #54545B",
"Q  c #5C5C5B",
"!  c #615E54",
"~  c #646156",
"^  c #666359",
"/  c #6B675C",
"(  c #6C685D",
")  c #716D5F",
"_  c #535264",
"`  c #636363",
"'  c #6C6A62",
"]  c #63636C",
"[  c #6C6C6C",
"{  c #726E62",
"}  c #767264",
"|  c #797566",
" . c #76746C",
".. c #7B7768",
"X. c #7E796A",
"o. c #676772",
"O. c #6A6A74",
"+. c #6F7070",
"@. c #747473",
"#. c #777877",
"$. c #7C7B75",
"%. c #7D7E7D",
"&. c #74747E",
"*. c #827E6E",
"=. c #857F70",
"-. c #807F79",
";. c #868270",
":. c #8A8574",
">. c #8E8976",
",. c #8D8779",
"<. c #8E897A",
"1. c #82807A",
"2. c #928D7C",
"3. c #97917E",
"4. c #7F7F88",
"5. c #838382",
"6. c #8A8983",
"7. c #85858C",
"8. c #8B8B8A",
"9. c #948F80",
"0. c #959080",
"q. c #9B9583",
"w. c #9F9985",
"e. c #91918D",
"r. c #949593",
"t. c #989792",
"y. c #999998",
"u. c #A19A86",
"i. c #A39D89",
"p. c #A09F9B",
"a. c #A7A08D",
"s. c #A9A38E",
"d. c #ADA793",
"f. c #AFA893",
"g. c #B1AA95",
"h. c #B4AD98",
"j. c #B7B098",
"k. c #BFB79E",
"l. c #BFB89E",
"z. c #A9AAA9",
"x. c #BEB7A0",
"c. c #BFB8A1",
"v. c #B2B1AF",
"b. c #B7B6B4",
"n. c #BBBBBA",
"m. c #C0B89E",
"M. c #C3BBA1",
"N. c #C9C1A6",
"B. c #CDC5AA",
"V. c #D3CAAE",
"C. c #C0C0BF",
"Z. c #D5CCB1",
"A. c #D8CFB2",
"S. c #DBD2B5",
"D. c #DFD6B9",
"F. c #E0D7B9",
"G. c #E5DBBC",
"H. c #E8DEBF",
"J. c #C4C4C2",
"K. c #CDCDCC",
"L. c #DCDCDC",
"P. c #D4D4D3",
"I. c #E9DFC0",
"U. c #ECE2C2",
"Y. c #F0E6C5",
"T. c #E0E0DF",
"R. c #EBEBEB",
"E. c #F5F5F5",
/* pixels */
"                                                                                                                                                                ",
"                                                                                                                                                                ",
"                                                                                                                                                                ",
"                                                                                                                                                                ",
"                                                                                                                                                                ",
"                                                                            r.&.O._ o._ N W o.4.                                                                ",
"                                                                    7.I c B M M B B B B B c v M b q m _                                                         ",
"                                                                O.V v 0 B B B B B B B B B c w 0 ; = = = - r O.                                                  ",
"                                                              N B B c M B B B B B B B B 0 - = = = = = = = = o - W                                               ",
"                                                            M B B B v B B B B M B v 0 ; - = = = = = - = = = = = $ 9                                             ",
"                                                          M c c c v c 0 ; - = = = = o o $ $ = $ = $ o o $ = = = = = 1                                           ",
"                                                        S = = $ + > $ = = = = = = = = $ 1 $ o O 6 : $ = $ O o o + $ o u                                         ",
"                                                        #.m ; $ $ Z j = = = = = - = = $ r - = % f : = = = $ = = = $ $ $                                         ",
"                                                              7.i Z ! : 1 q 1 - = = = $ 9 = $ j E > = - = o - m [                                               ",
"                                                                e.K ^ K           ] u - i W i E / Z       [                                                     ",
"                                                                r.L ( L                 6.  K / / T                                                             ",
"                                                                8.L / Z                 %.  H ! ~ Z                                                             ",
"                                                                  H E t e.Q 8 x G G l l s g 8 ~ t @.                                                            ",
"                                                                  R J J t 3 3 a d d a 5 s 8 Z / t %.                                                            ",
"                                                                Q t E ( / ^ E Z h g f f s s E ( P 7 [                                                           ",
"                                                              r k ^ ( / ( / ( ( / ~ ( ^ H ~ ^ / / ^ 7 `                                                         ",
"                                                            r D / / / / / / / / / / / / L ~ / / / / ^ 7 %.                                                      ",
"                                                          C p ( ^ '  ./ / / ( / / / / / L ~ / ^  ./ / ~ 7                                                       ",
"                                                          < ~ ~ 6.T.R.n.^ / / / ( / / / T ~ ' b.L.K.} / K A                                                     ",
"                                                        j F ( ~ K.C.5.E.-.^ / ^ E J L P K E 6.J.! R.t.~ / 7                                                     ",
"                                                      ` < / ( ! b.R.P.E.#.^ / J C F C r C ! 1.L.n.E.e.~ ( D C                                                   ",
"                                                      > j Z T ! / b.K.t.^ / / ^ ! ! ! T J ~ ^ t.J.z./ E L D % 8.                                                ",
"                                                    [ 7 ^ E L ! ^ ~ ~ ~ / / ( / ( / ' / K ~ / ^ ! ! E Z J T 7 [                                                 ",
"                                                  5., K ^ / } ' / / / / / / / / / ( / / T ! ( / ( / / ! K L Z y                                                 ",
"                                                  Q E w.2.;.:.w.<.| / ( ( / / ( ( ( / ^ L ! / / / / ^ F J L L 2                                                 ",
"                                                  > ( *.<.q.i.d.f.a.<.( / / / / ( ^ ^ ^ ! ! ( / ( ( ( ~ ~ ^ ! t Y                                               ",
"                                                f / s.d.g.f.f.d.d.d.d.q.} / / ( ' ! ^ ! U Y ( ( ( ( ( ' / / ( L i                                               ",
"                                              z.j a.f.f.d.f.d.f.d.f.d.f.w. ./ / ( ^ ( L $ y Z p p Z D ! ! ( ( ! 2                                               ",
"                                              R ..g.d.d.f.d.f.d.d.d.f.g.h.q./ ! D 4 ! L 2 e Z ! T J p y p Z ! ' y $.                                            ",
"                                              p a.d.f.d.d.f.d.d.g.f.w.*.( ! D Z 4 $ y t 1 Z ' ( ( ( ( ( ! Z p L L C                                             ",
"                                            Y } h.d.d.d.f.d.f.d.<.^ ~ ;.d.B.S.B.| 3 u...* F / / / / ( ( / ( ! ! / r                                             ",
"                                            j a.d.d.d.d.d.g.w.L J i.D.U.Y.Y.U.H.g.4 p t % J / / / / / / ( / / ( / k @.                                          ",
"                                          ' { g.d.f.f.d.d.*.t X.D.Y.U.U.U.B.s.V.G.3.L ! L t / / / ( / / / / ( / ( ! i                                           ",
"                                          A i.g.w.w.f.g.| t i.c.j.D.U.U.B.9.>.3.A.A.m.3.~ j L ) / ( / ( ( / ( / / / 7                                           ",
"                                        r./ g.d.( 2.h.<.y h.h.2.0.d.U.U.i.i.M.k.B.H.N.g.j.3.j / / / / / / / / / / ( j 5.                                        ",
"                                        Q 3.g.u.P s.s.k q.G.j.Z.D.S.U.U.S.U.U.U.U.U.Z.l.m.m./ z ( / / / / / / / ( ( L K                                         ",
"                                        J d.d.:.^ g.} ! G.U.U.U.U.U.U.U.U.U.U.U.U.U.U.N.k.m.g.x E ( / / / / ( / / / ! t                                         ",
"                                      5.( g.g.~ X.a.k j.U.U.U.U.U.U.U.U.U.U.U.U.U.U.A.B.m.k.m.w.j ! ( / ( / / ( / / / 2                                         ",
"                                      [ ,.h.d.J q.>.( U.U.U.U.U.U.U.U.U.U.U.U.U.U.c.9.q.h.m.l.m.*.t ^ ( / / / / ( / / 4                                         ",
"                                      Y w.d.u.L a.{ d.Y.U.U.U.U.U.U.G.k.w.B.U.U.Z.9.q.q.q.k.l.h.| s t ^ ( / / ( ( / ( t +.                                      ",
"                                      L d.d.2.! d.~ V.F.M.S.U.U.U.U.k.6.6.q.D.U.B.c.D.G.B.k.k.*.^ ^ j y ! ( / / / / ( p Q                                       ",
"                                      ~ g.g.X.( i.' D.s.<.q.S.U.U.A.q.h.N.d.B.U.U.U.U.U.G.M.k.a.g.d.;.>.j J / / / / ( Z A                                       ",
"                                    r.} g.g.^ X.<.;.c.0.j.f.B.U.U.I.D.U.U.U.U.U.U.U.U.U.U.B.k.l.m.m.m.M.>.Z Z ~ ( ( / J i                                       ",
"                                    #.;.g.d.L ,.*.3.N.Z.U.U.U.U.U.U.U.U.U.U.U.U.U.H.U.U.Y.Z.m.m.m.m.k.k.m.j.( y Z ! / L y                                       ",
"                                    ` 2.g.s.D 3.( u.Y.U.U.U.U.U.U.U.U.U.U.U.U.H.U.U.U.U.U.S.m.m.m.k.k.k.k.m.g.i.:.k J P y                                       ",
"                                    F w.g.i.Z u.! s.Y.U.U.U.U.U.U.U.U.U.U.U.U.U.U.U.U.U.U.F.m.m.k.k.l.l.m.k.m.m.m.} k P i                                       ",
"                                    A w.g.u.j i.L k.U.U.U.U.U.U.H.U.U.U.U.U.U.U.U.U.U.U.U.H.m.m.k.m.k.l.k.k.m.x.m.} k ! i                                       ",
"                                    Z 2.h.2.j i.K B.U.U.U.U.U.U.U.U.U.U.U.U.U.U.U.U.U.U.Y.H.M.m.k.m.k.k.k.k.k.k.m.) Z ! i                                       ",
"                                    U ;.f.{ p u.J V.U.U.U.U.U.U.U.U.U.U.U.U.U.U.U.U.U.U.H.H.M.m.k.k.k.m.k.m.m.k.m./ D ! Z                                       ",
"                                    @.~ q.P j u.J S.U.U.U.U.U.U.U.U.U.U.U.U.U.U.U.U.U.U.Y.H.m.k.k.m.k.k.k.m.k.k.m.E J ! A                                       ",
"                                      j | D y u.J S.U.U.U.U.U.U.U.U.U.U.U.U.U.U.H.U.U.U.I.H.M.k.k.k.k.k.k.k.k.k.m.J K P H                                       ",
"                                      i 7 < 7 u.z M.Y.U.Y.H.Y.H.U.U.U.U.U.U.U.U.U.U.U.U.U.G.m.m.k.k.k.k.k.k.k.k.j.k E J T                                       ",
"                                      A - C j a.z j.Y.U.H.Y.H.Y.U.U.U.U.U.U.U.U.U.U.U.U.Y.A.m.m.k.k.m.k.k.k.m.m.g.y ! k !                                       ",
"                                      5.t [ C s.L 3.Y.U.U.U.Y.H.H.U.U.U.U.U.U.U.U.U.Y.I.I.V.m.m.k.m.m.k.m.k.k.m.u.7 / t @.                                      ",
"                                          t.i i.} *.Y.U.U.U.H.U.U.U.U.U.U.U.U.H.U.U.I.U.H.N.m.m.k.k.k.k.k.k.m.m...h ) 4 8.                                      ",
"                                            Z 3.3.! H.U.U.U.U.U.U.U.U.U.U.U.U.U.U.U.U.Y.F.M.k.k.k.k.k.k.k.k.m.k.Z J ~ ,                                         ",
"                                            A =.d.J m.Y.U.U.U.U.U.U.U.U.U.U.U.U.U.U.U.I.V.k.k.m.k.M.k.k.m.m.m.3.7 / K i                                         ",
"                                            ` ~ h.| ^ U.H.U.U.U.U.U.U.U.U.U.U.U.I.U.U.G.M.k.k.k.k.x.k.k.m.m.m.J Z ) t @.                                        ",
"                                              p s.i.k 3.Y.U.U.U.U.U.H.Y.H.U.U.U.Y.I.H.M.m.k.k.k.m.k.k.k.m.m.=.p ^ ^ <                                           ",
"                                              y <.g.,.t s.Y.U.U.U.U.U.I.U.U.U.U.U.H.B.m.k.k.k.k.k.k.m.m.m.3.h ! / K H                                           ",
"                                              #.F d.g.X.t g.U.U.U.U.U.U.U.U.I.Y.H.V.m.m.m.k.k.m.m.k.m.m.u.k J ( ^ t                                             ",
"                                                y 2.d.g.*.j a.Y.Y.U.Y.U.U.U.H.F.N.j.m.m.k.k.m.m.j.m.m.>.p J ( ( k Q                                             ",
"                                                5.Z d.d.g.2.Z 2.F.G.F.S.V.B.m.m.m.m.m.m.m.m.m.m.m.j.} p ! ( ( L 4                                               ",
"                                                  A / f.s.g.2.y P u.m.m.m.k.m.m.m.m.m.m.m.m.m.m.3.D p ! ( ( P 7                                                 ",
"                                                    r { g.s.*./ Z y L :.d.k.m.M.m.m.m.m.m.g.3.P y D / ( ( J y                                                   ",
"                                                      K J ( ! ! ( / L z z ~ | ;.>.:.;.*.P k p z ~ ) ( / D i                                                     ",
"                                                        > > > , y P ^ ~ ~ P Z t . 7 J L P ~ / / ! D p r > R                                                     ",
"                                                          7.` Z 2 * < 7 i C i & . # > , , * % & . % & - % % > i A U A W R _ ^ Q @.[ #.%.%.                      ",
"                                                                                        #.Q A r * & # # . % p i - & > > 3 r A @.#.                              ",
"                                                                                                                                                                ",
"                                                                                                                                                                ",
"                                                                                                                                                                ",
"                                                                                                                                                                ",
"                                                                                                                                                                ",
"                                                                                                                                                                "
};
