/* XPM */
static char *gratis_png_pelaje_negro_susuwatari_noiraude_studio_ghibli_ghibli_anime_museo_thumbnail_removebg_preview_kopyas____1_1679302971[] = {
/* columns rows colors chars-per-pixel */
"40 40 178 2 ",
"   c None",
".  c #010101",
"X  c #020202",
"o  c #020203",
"O  c gray1",
"+  c #030304",
"@  c #040404",
"#  c #040405",
"$  c gray2",
"%  c #050506",
"&  c #050606",
"*  c #060606",
"=  c #060607",
"-  c #070707",
";  c #070708",
":  c #080708",
">  c gray3",
",  c #080809",
"<  c #090809",
"1  c #090909",
"2  c gray4",
"3  c #0A0A0B",
"4  c #0B0A0B",
"5  c #0B0B0B",
"6  c #0B0B0C",
"7  c #0C0B0C",
"8  c #0C0C0C",
"9  c #0C0C0D",
"0  c gray5",
"q  c #0D0D0E",
"w  c #0E0E0E",
"e  c gray6",
"r  c #0F1010",
"t  c #101010",
"y  c #101011",
"u  c #111011",
"i  c #111111",
"p  c gray7",
"a  c #121213",
"s  c #131313",
"d  c #131314",
"f  c gray8",
"g  c #151415",
"h  c #151516",
"j  c #161616",
"k  c #161617",
"l  c gray9",
"z  c #181818",
"x  c #181819",
"c  c #191819",
"v  c #19191A",
"b  c #1A191A",
"n  c gray10",
"m  c #1A1A1B",
"M  c #1B1A1B",
"N  c #1B1B1B",
"B  c #1B1B1C",
"V  c #1C1B1C",
"C  c gray11",
"Z  c #1C1C1D",
"A  c #1D1C1D",
"S  c #1D1D1D",
"D  c #1D1D1E",
"F  c #1E1D1E",
"G  c #1E1E1E",
"H  c #1E1E1F",
"J  c #1F1E1F",
"K  c gray12",
"L  c #1F1F20",
"P  c #202020",
"I  c #212122",
"U  c #222122",
"Y  c #222223",
"T  c #232223",
"R  c #232323",
"E  c #242324",
"W  c gray14",
"Q  c #242425",
"!  c #262526",
"~  c #272627",
"^  c #282829",
"/  c #292829",
"(  c #29292A",
")  c #2A292A",
"_  c #2A2A2A",
"`  c #2B2B2C",
"'  c #2D2C2D",
"]  c #2E2D2E",
"[  c #2E2E2F",
"{  c #2F2E2F",
"}  c #2F2F2F",
"|  c #302F30",
" . c gray19",
".. c #313031",
"X. c #313132",
"o. c #323232",
"O. c #333334",
"+. c #343334",
"@. c #343434",
"#. c #353435",
"$. c gray21",
"%. c #363637",
"&. c #373738",
"*. c #383738",
"=. c #383839",
"-. c #393839",
";. c #3A393A",
":. c #3A3A3B",
">. c #3B3A3B",
",. c #3B3B3C",
"<. c #3D3D3E",
"1. c #3E3D3E",
"2. c #3E3E3F",
"3. c #3F3E3F",
"4. c #403F40",
"5. c gray25",
"6. c #414041",
"7. c #414141",
"8. c #414142",
"9. c #424243",
"0. c #434243",
"q. c #434343",
"w. c #444444",
"e. c #464546",
"r. c #464647",
"t. c #474647",
"y. c #474748",
"u. c #494849",
"i. c #49494A",
"p. c gray29",
"a. c #4A4A4B",
"s. c #4B4A4B",
"d. c #4B4B4B",
"f. c #4C4B4C",
"g. c #4C4C4D",
"h. c #4E4D4E",
"j. c #4F4E4F",
"k. c #504F50",
"l. c #505051",
"z. c #515051",
"x. c #525152",
"c. c #545354",
"v. c #555455",
"b. c #555555",
"n. c #555556",
"m. c #575657",
"M. c #595859",
"N. c #5A595A",
"B. c #5B5A5B",
"V. c #5C5B5C",
"C. c #5D5C5D",
"Z. c #5D5D5D",
"A. c gray37",
"S. c #5F5E5F",
"D. c #5F5F5F",
"F. c #605F60",
"G. c #616061",
"H. c gray38",
"J. c #626162",
"K. c gray39",
"L. c #646364",
"P. c #656465",
"I. c #666566",
"U. c #676667",
"Y. c #676767",
"T. c #686768",
"R. c #696869",
"E. c #6C6B6C",
"W. c #6E6D6E",
"Q. c #6F6E6F",
"!. c gray44",
"~. c #717071",
"^. c #717171",
"/. c #737273",
"(. c gray45",
"). c #767676",
"_. c #787778",
"`. c #828182",
/* pixels */
"                                                                                ",
"                                                                                ",
"                                                                                ",
"                                N.d.g.k.2.e.z.e.N.                              ",
"                        S.z.2.$./ x V S d S I x / q.k.T.                        ",
"                    ~.c.' I B u 9 * 1 1 + * 1 - 9 x T $.n.                      ",
"                  V.2./ u 1 - * . * . . . + * * * * - u { n.J.                  ",
"                U.;.C 1 * . O . . . . . . . . . . . @ * f ..' 8.                ",
"              S.*.S 1 * . O . O O . O . O . O . . * . . 1 9 9 ' J.              ",
"            T.3.x 1 O . O . O . . O . O . O . O . . . . . . - x ;.U.            ",
"            8.I 1 + . . . O . O O . O . O . O . . . . * . O * 1 S 2.R.          ",
"          B.~ 6 * O . O O . O . . O . O . O . O . * . . O . . . 6 I 8.          ",
"          d.L * . . O . O . . . O . O . O . O . . . . . . O . O * 9 ..Z.        ",
"        N...f * + . . . O * * * . O . O . O . O * * * * O . O . . 1 K d.        ",
"        z.S * . . O + -         * * O . + . . 1         * * . O O * u ;.T.      ",
"        8.x * . O . 1             1 . O . . 1             1 O . . . 6 / N.      ",
"      n.Q 1 . O . *             e u * . O O f 5 *           * . O . 1 Y m.      ",
"      f.S * O . O 9           > * u * . . -   1 *           9 . . O * f y.      ",
"      f.S * . O @             9 1   > . O -                   * O . * f 4.      ",
"      g.S ; O . *                   - . . 5                   * . . O f d.      ",
"      2.f ; . O @                   @ . O >                   * . O + C z.      ",
"      e.x * O . O t               9 @ . O . ..              9 . O . O u 5.      ",
"      n.L * . O . 1             u @ . O . . u Z.            1 . . O + u ;.      ",
"      N.I 1 + . O O u $.      9 * . O . O . . f d.~.      1 . . O . * x d.      ",
"      J...u + . . O . 1 e 9 * @ @ . . . . . . . * f x 8 @ @ . . . O 1 R n.      ",
"        e.f * . O . O . . . O . . . @ @ @ @ . @ . . . . . . . @ O . u ..J.      ",
"        d.I 1 + . O . O . O . O . @ . . . . . . . O . O . . . @ . 1 S w.        ",
"        U.$.u * O . O . O . O . . . @ . . @ @ . O . O . @ @ . . O u ..S.        ",
"          g.~ 1 O . . O . . . @ @ @ . . . @ . . . @ @ . . . . @ 1 S 8.          ",
"          Q.*.S 1 O O . @ @ . . . . . @ . @ . @ . . . . . @ . @ N 8.E.          ",
"            J.,.f 8 @ . . . @ . . . . @ . . @ . @ . . @ . . 1 N ..U.            ",
"              n.' ~ 1 * . @ . . @ @ . . @ . . . @ . . @ . * u @.Z.              ",
"                J.e.B * + + . . . O . O . O . O . O . O - d ..z.                ",
"                  Q.$.S f 6 + O . . O . O . O . O . : 1 f ..n.                  ",
"                    L.g.2.~ f 1 * + * . . * * * * 9 K +.,.V.                    ",
"                      `.U.z.;./ c z t 4 9 f x x I ..d.R.                        ",
"                            ~.Z.e.e.;.+.*.2.g.g.m.T.                            ",
"                                    ).(.(._.                                    ",
"                                                                                ",
"                                                                                "
};
