/* XPM */
static char *Realistic_Tree_Png_Image_Background___Trees_For_Rendering_In_Photoshop__Transparent_Png_1195x1395____PngFind_removebg_preview_kopyas__1679308437[] = {
/* columns rows colors chars-per-pixel */
"68 80 183 2 ",
"   c None",
".  c #384D16",
"X  c #35461D",
"o  c #37491C",
"O  c #3A4D1B",
"+  c #3E521C",
"@  c #384721",
"#  c #3E4D24",
"$  c #3D4B29",
"%  c #354221",
"&  c #3E5121",
"*  c #41551E",
"=  c #455A1E",
"-  c #425424",
";  c #465A24",
":  c #495D24",
">  c #44552B",
",  c #47582A",
"<  c #4A5B2B",
"1  c #495633",
"2  c #4C5C33",
"3  c #4E5B38",
"4  c #455331",
"5  c #505F36",
"6  c #515E3B",
"7  c #4C6224",
"8  c #4E622C",
"9  c #506627",
"0  c #51642D",
"q  c #54692C",
"w  c #596E2C",
"e  c #5C732E",
"r  c #4F6033",
"t  c #526434",
"y  c #556933",
"u  c #596C35",
"i  c #54633C",
"p  c #58673F",
"a  c #576A39",
"s  c #5A6C3C",
"d  c #5E7433",
"f  c #5E713B",
"g  c #617736",
"h  c #627A35",
"j  c #61753B",
"k  c #647A3B",
"l  c #566441",
"z  c #596741",
"x  c #5D6C43",
"c  c #5D6B49",
"v  c #5D674B",
"b  c #5F7043",
"n  c #5D6750",
"m  c #606F46",
"M  c #626F4B",
"N  c #627344",
"B  c #667A43",
"V  c #6A7D45",
"C  c #64734B",
"Z  c #68754F",
"A  c #677849",
"S  c #6A7C4C",
"D  c #636E53",
"F  c #667351",
"G  c #697554",
"H  c #6C7A53",
"J  c #6C775B",
"K  c #6E7A5B",
"L  c #707F55",
"P  c #717D5B",
"I  c #737D63",
"U  c #767D6B",
"Y  c #787F6D",
"T  c #787E70",
"R  c #6D833D",
"E  c #6C8144",
"W  c #6E814B",
"Q  c #708646",
"!  c #71854D",
"~  c #758A4B",
"^  c #788E4C",
"/  c #6E8150",
"(  c #738354",
")  c #768A53",
"_  c #798C55",
"`  c #75835C",
"'  c #78865D",
"]  c #77885A",
"[  c #7B8C5B",
"{  c #7C9154",
"}  c #7D905C",
"|  c #768362",
" . c #7A8664",
".. c #7C8A63",
"X. c #7C866A",
"o. c #7E896B",
"O. c #7D8472",
"+. c #82955E",
"@. c #818F65",
"#. c #828E6C",
"$. c #829364",
"%. c #879964",
"&. c #8A9C66",
"*. c #85936B",
"=. c #88966D",
"-. c #8B9B6C",
";. c #909F6E",
":. c #838D73",
">. c #81877E",
",. c #858C7A",
"<. c #888E7B",
"1. c #869174",
"2. c #899474",
"3. c #8D9A74",
"4. c #8B947B",
"5. c #8E997B",
"6. c #919E75",
"7. c #919D7C",
"8. c #8EA16A",
"9. c #91A36E",
"0. c #8FA072",
"q. c #93A374",
"w. c #96A874",
"e. c #95A27C",
"r. c #99A67D",
"t. c #9AAA7C",
"y. c #878D81",
"u. c #888E82",
"i. c #8D9484",
"p. c #8F9688",
"a. c #919785",
"s. c #939C82",
"d. c #90978A",
"f. c #959B8B",
"g. c #989E8C",
"h. c #979F91",
"j. c #999F91",
"k. c #96A183",
"l. c #9AA584",
"z. c #9DAB82",
"x. c #9BA48B",
"c. c #9FAB8A",
"v. c #9CA394",
"b. c #9EA49A",
"n. c #A2AF87",
"m. c #A1AC89",
"M. c #A2B182",
"N. c #A4B08C",
"B. c #A0A697",
"V. c #A3AB93",
"C. c #A1A69A",
"Z. c #A5AB9C",
"A. c #A8AF9F",
"S. c #A7B092",
"D. c #ABB594",
"F. c #ADB797",
"G. c #A6AEA8",
"H. c #ACB3A1",
"J. c #B0B7A5",
"K. c #B4BBA6",
"L. c #B5BAA9",
"P. c #B4BFBA",
"I. c #B8BFBC",
"U. c #B3C193",
"Y. c #B6C0BC",
"T. c #BAC2BE",
"R. c #BBC5C1",
"E. c #BFC9C5",
"W. c #C1CAC6",
"Q. c #C3CCCB",
"!. c #C7D1CC",
"~. c #C9D2CE",
"^. c #C5CFD1",
"/. c #C6D1D3",
"(. c #CAD3D5",
"). c #CFD8D6",
"_. c #CDD6D8",
"`. c #CFD9DA",
"'. c #D1D8D4",
"]. c #D0D7D9",
"[. c #D3DBDC",
"{. c #D8DEDE",
"}. c #D1D6D1",
/* pixels */
"                                                                                                                                        ",
"                                                                                                                                        ",
"                                                                                                                                        ",
"                                                                                                                                        ",
"                                                              A S H *.                                                                  ",
"                                                              ` =./ k W `   (                                                           ",
"                                                              V f q q f f | 5.*.                                                        ",
"                                                              | S S G u f ..                                                            ",
"                                                              o.o.o...H A 2...     . ...[                                               ",
"                                          Z / l - - a | | x ` o.1./ *.......i a | o.1.k.5.                                              ",
"                                        t t : i + o O < a s  .  5. .2.A b b & & s f b A *.( /                                           ",
"                                      x s < 2 r < ; , < ; 8 F 3 l b b y a 7 ; + + + + + r u / ] $.[ _                                   ",
"                                      t b b Z c i s ` s i - r 3 8 8 t b y 8 : + . + + q b f / W [ ..(   n.                              ",
"                                      K H i.o.G I |  .Z F 5 i F A ..` f a A p r 7 + & c / A ] *.] / ..5.                                ",
"                                    F r G  .G x x J *.*.I D J ` ..] f 8 r p < , 8 t 8 b S S o.5.3.*.(  .      3._                       ",
"                                    c 1 G x z r < | 1.o.` x P  ...o./ ..H C C c $ & , 8 b 1.5.k.s.2.#. .      q.$.                      ",
"                                  :.  C t 7 = * 0 N Z P i - x #.    2.    1.] i @ @ # o t | ` =.  *.C p (       k.                      ",
"                                  | 1.u = = 7 7 < : y s > , C     2.:.    ` G 1 $ X 2 x P x x S    .r - C ..  5.[ $.                    ",
"                                  5.Z t y 8 ; 0 , , , : , G x z i 3 2 p x C s 1 % $ 4 U s.x 2 t u A r < s |     3.) %.                  ",
"                                    G P  .t t x A B 0 t , i 1 , > > , i b p r r 1 1 l G N M N 0 q q V j A :.s.-.*.) %.r.                ",
"                                c c     o.x z K L k s m 1 - 4 v 6 5 , t s r < & x | c a t 9 f N d q e h k ] =.A B E ) +.                ",
"                      W +.    m C G J   G i x x ` :. .G 6 5 l 1 $ 1 ; 0 8 w q y S G C f s 7 7 0 B B q e e Q *.( S f h ~ -.              ",
"                  [ ) u g E j Z ..o.   .l 3 3 i p z M #.M J n $ 4 , ; 8 7 t 8 y r b ` ` s y 0 x B B L ( k ) e.3.c.} f _ r.              ",
"                -.) _ ! R g L j k } ..x c i i < - 2 - t G F J M p t 0 s 8 7 7 : 7 - l c x C N N s b H A W _ $...D.N.{ B w.              ",
"              *.{ [ *.-.%.) +.) } -.x > z z 5 2 - > < x t p Z B L s f f u y 0 2 - 4 3 6 z M N m C s Z A B V ..e.n.  n.[ 0.              ",
"              l.$.] V ! ! ) +.@.( b , 2 z G i 1 > - , C m t < 9 q y N Z P G M G L P D z 5 z x y 8 8 u s H %.l.  3.c.                    ",
"              3.7.A j ] $.e.t.m.' < 3 D z t 0 ; > - < x m p ; = : - - p :.#.H 5 s m J v 6 G x s f r u A *.z.-.                          ",
"              2...s S =.7.    5.*.G D x t y 9 7 : ; t 0 a 2 - O * * - 6 ,.P C 6 > 2 z M Z H Z P ] N S ' 7.                              ",
"            ( | ` f S =._ @.*.` ` F I , y < * * > t t 8 ; , 2 8 7 - - p <.#.I M , , s D L t x F :.4.`  .    3.*.                        ",
"            7.o.L j ! @.S $.s.4.1.I  .t s 8 * * - t f m < s N h B L t m <.:.J H 3 p p G G : , C X.  ( 1.  *.] W                         ",
"            =.$._ ] L u ( #.5.1.C M C G x s 0 y u 0 C C t s C S @.L a M #.#.5 m C P  .J :.p - 1 l |       6.7./ V                       ",
"              -.7.m.[ ( ] #.5.P D J M M C x B u u j j m H  .<.| X.#.G H I [ Z m H x P I A r , < r H     3.3.r.=.W !                     ",
"                } -.=.~ E _ ' b p 6 4 m M 1 5 s N A H P P  .4.1.2.#.X.P #.=...V N A H H s Z G m 2.    6.[ ..@.r.3.+.[                   ",
"              } { -.c.-.E ) ..x p > O 2 i $ p C P I K  .o.  4.s.    X.P 1.6.5.2.B ..A M m p M #.#.` #.[ _ ! B =.  z.                    ",
"            $.-.-.D.t.) _ =.4.H m 5 o 5 a 5 s N G H G ..1.    4.    :.U #.( #.#.I H H  .#.a C x t f ! V ! V k [                         ",
"            9.8.z.z.r.=._ [ H ' C 0 , 0 g e k g h B S ( 1.    g.    Y X.@.A Z H ` [ [ ( L B A s s y B S V [ ! _                         ",
"          &.z.  l.m.  r.t.} B W A g g u h R ~ L [ ' ] ]         v.  I 5.e.B ! L ( ^  .( ! ) V k L k V ! S ! V ^ q.F.                    ",
"                q.r.l.k.3.S h h g V ! +._ +.+.' #.*.#.L         s.  Y 3.  $.@.  5.o.1._ &.%.{ E ] ! %.-.&.&.w.%.+.                      ",
"              -.{ 3.*.=.V d k _ g j [ @.[ [ #.X.  a.<.U           f.:.2.q.6.s.  ,.4.s.7.9.w.%.^ k ) q.&.&.&.                            ",
"              r.9.S.5.V e h { _ Q ( ! ` ' @.X. .    a.            6.-...      7.X.4.l.c.  r.+.+._ %.S.n.&.+.                            ",
"          M.r.8.-.z.$.W k $.6.! _ 3.7...( X.] _ *.  #...I       w.-.6.[ 2.      ..4.x.    s.3.q.&.e.m.  3.                              ",
"          w.+.8.M.q.+.( Q +.;.%.[ %.3.@.@._ *.@.#.  2.-.` (   9.t.6.  1.s.      3.7.V.k.                8.9.-.                          ",
"            ^ 8.      $._ +.t.r.6.r.  @.7.*.=.r.:.  x.k.2.` 6.w.  7.5.7.5.      s.x.e.                                                  ",
"                        e.t.  n.      7.=.7.x.x.    s.s.  ..[ t.  f.,.5.      e.3.*.5.                                                  ",
"                      M.M.              e.e.l.m.    x.x.    ..    g.,.5.      z.  *.F.                                                  ",
"                                          n.D.V.      x.x.<...    v.        c.z.9.t.U.                                                  ",
"                                                            3.O.    g.      A.q.6.n.                                                    ",
"                                                        g.      X.,.i.U   J.K.e.3.                                                      ",
"                                                  L.      x.      ,.>.U V.L.  *.%.                                                      ",
"                                                          s.      ,.X.O.V.    i.-.-.                                                    ",
"                                                    L.      d.    U Y d.H.    f.                                                        ",
"                                                    L.        p.  I O.A.                                                                ",
"                                                      L.        p.T d.J.    f.                                                          ",
"                                                      L.        C.p.g.    g.v.                                                          ",
"                                                        L.        j.g.    g.                                                            ",
"                                                          J.        d.  d.Z.                                                            ",
"                                                            H.      d.d.B.                                                              ",
"                                                              H.  i.f.b.                                                                ",
"                                                                H.d.v.                                                                  ",
"                                                                  H.C.                                                                  ",
"                                                                  H.H.                                                                  ",
"                                                                    v.Z.                                                                ",
"                                                                    v.C.                                                                ",
"                                                                    v.B.                                                                ",
"                                                                    j.b.                                                                ",
"                                                                    f.b.                                                                ",
"                                                                    h.v.                                                                ",
"                                                                    j.b.                                                                ",
"                                                                    v.b.                                                                ",
"                                                                    h.j.                                                                ",
"                                                                    j.j.                                                                ",
"    (.(.(.(.`.[.[._.(.(._._.`.`._.(.(.(.(.[.].(.`.(./.(.(.    (.`.I.p.p.C.                                                              ",
"    (.(.(.(.(.(./.(.^.^././.].{.'.(.(.(.(.'.[.'./.Q.Q.Q.Q.    /.Q.b.u.u.p.E.Q.      {.{.~.!.(.'.                                        ",
"    _.`._._.^.Q.E.^.^.E./._.(.~.Q.W.W.Q.W.Q.Q.W.R.I.Y.P.P.T.W.W.T.v.,.>.>.G.R.R.T.W.}.'.~.!.Q.                                          ",
"                                    W.    W.W.Q.                                                                                        ",
"                                                                                                                                        ",
"                                                                                                                                        ",
"                                                                                                                                        ",
"                                                                                                                                        ",
"                                                                                                                                        "
};
